<?xml version="1.0" encoding="UTF-8" standalone="no"?>
<!DOCTYPE svg PUBLIC "-//W3C//DTD SVG 1.1//EN" "http://www.w3.org/Graphics/SVG/1.1/DTD/svg11.dtd">
<svg width="100%" height="100%" viewBox="0 0 47 81" version="1.1" xmlns="http://www.w3.org/2000/svg" xmlns:xlink="http://www.w3.org/1999/xlink" xml:space="preserve" style="fill-rule:evenodd;clip-rule:evenodd;stroke-linejoin:round;stroke-miterlimit:1.41421;">
    <path id="Forma-1" d="M46.395,38.626L8.428,0.66C7.885,0.117 7.26,-0.155 6.554,-0.155C5.848,-0.155 5.223,0.117 4.68,0.66L0.607,4.734C0.063,5.277 -0.208,5.901 -0.208,6.608C-0.208,7.315 0.063,7.939 0.607,8.482L32.626,40.501L0.607,72.52C0.063,73.064 -0.208,73.689 -0.208,74.394C-0.208,75.101 0.063,75.726 0.607,76.269L4.68,80.341C5.223,80.885 5.848,81.155 6.554,81.155C7.26,81.155 7.885,80.884 8.428,80.341L46.395,42.375C46.938,41.832 47.208,41.207 47.208,40.501C47.208,39.795 46.938,39.17 46.395,38.626Z" style="fill:white;fill-rule:nonzero;"/>
</svg>
